<mxfile host="Electron" agent="Mozilla/5.0 (Macintosh; Intel Mac OS X 10_15_7) AppleWebKit/537.36 (KHTML, like Gecko) draw.io/28.0.4 Chrome/138.0.7204.97 Electron/37.2.1 Safari/537.36" version="28.0.4" pages="1">
  <diagram id="f8b0f52f50494901" name="Setup Multi Env Application Graph Td">
    <mxGraphModel dx="706" dy="604" grid="1" gridSize="10" guides="1" tooltips="1" connect="1" arrows="1" fold="1" page="1" pageScale="1" pageWidth="827" pageHeight="1169" math="0" shadow="0">
      <root>
        <mxCell id="0" />
        <mxCell id="1" parent="0" />
        <UserObject label="" mermaidData="{&quot;data&quot;:&quot;graph TD\n    subgraph \&quot;Development Cluster\&quot;\n        DEV_NS[\&quot;Development Namespace\&quot;]\n        DEV_APP[\&quot;Application: v1.0.0-dev\&quot;]\n        DEV_CONFIG[\&quot;Dev ConfigMaps/Secrets\&quot;]\n        DEV_STORAGE[\&quot;Dev Storage\&quot;]\n    end\n\n    subgraph \&quot;Production Cluster\&quot;\n        subgraph \&quot;LAT Environment\&quot;\n            LAT_NS[\&quot;LAT Namespace\&quot;]\n            LAT_APP[\&quot;Application: v1.0.0-rc\&quot;]\n            LAT_CONFIG[\&quot;LAT ConfigMaps/Secrets\&quot;]\n            LAT_STORAGE[\&quot;LAT Storage\&quot;]\n        end\n        \n        subgraph \&quot;Production Environment\&quot;\n            PROD_NS[\&quot;Production Namespace\&quot;]\n            PROD_APP[\&quot;Application: v1.0.0\&quot;]\n            PROD_CONFIG[\&quot;Prod ConfigMaps/Secrets\&quot;]\n            PROD_STORAGE[\&quot;Prod Storage\&quot;]\n        end\n    end\n\n    subgraph \&quot;Shared Infrastructure\&quot;\n        REGISTRY[\&quot;Container Registry\&quot;]\n        RHACM[\&quot;Red Hat ACM\&quot;]\n        GITOPS[\&quot;GitOps (ArgoCD)\&quot;]\n    end\n\n    DEV_NS --&gt; DEV_APP\n    DEV_APP --&gt; DEV_CONFIG\n    DEV_APP --&gt; DEV_STORAGE\n    \n    LAT_NS --&gt; LAT_APP\n    LAT_APP --&gt; LAT_CONFIG\n    LAT_APP --&gt; LAT_STORAGE\n    \n    PROD_NS --&gt; PROD_APP\n    PROD_APP --&gt; PROD_CONFIG\n    PROD_APP --&gt; PROD_STORAGE\n\n    REGISTRY --&gt; DEV_APP\n    REGISTRY --&gt; LAT_APP\n    REGISTRY --&gt; PROD_APP\n    \n    RHACM --&gt; DEV_NS\n    RHACM --&gt; LAT_NS\n    RHACM --&gt; PROD_NS\n    \n    GITOPS --&gt; DEV_NS\n    GITOPS --&gt; LAT_NS\n    GITOPS --&gt; PROD_NS\n\n    style DEV_NS fill:#ddf,stroke:#333\n    style LAT_NS fill:#ffd,stroke:#333\n    style PROD_NS fill:#fdd,stroke:#333\n    style REGISTRY fill:#f9f,stroke:#333\n    style RHACM fill:#9ff,stroke:#333&quot;}" id="152b0fe0571647cb">
          <mxCell style="shape=image;noLabel=1;verticalAlign=top;imageAspect=1;image=data:image/svg+xml,PHN2ZyB3aWR0aD0iMjAwIiBoZWlnaHQ9IjIwMCIgeG1sbnM9Imh0dHA6Ly93d3cudzMub3JnLzIwMDAvc3ZnIj48cmVjdCB3aWR0aD0iMjAwIiBoZWlnaHQ9IjIwMCIgZmlsbD0iI2Y5ZjlmOSIgc3Ryb2tlPSIjY2NjIi8+PHRleHQgeD0iMTAwIiB5PSIxMDAiIHRleHQtYW5jaG9yPSJtaWRkbGUiIGZvbnQtZmFtaWx5PSJBcmlhbCIgZm9udC1zaXplPSIxNCIgZmlsbD0iIzMzMyI+TWVybWFpZCBEaWFncmFtPC90ZXh0Pjwvc3ZnPg==;" vertex="1" parent="1">
            <mxGeometry x="260" y="130" width="200" height="200" as="geometry" />
          </mxCell>
        </UserObject>
      </root>
    </mxGraphModel>
  </diagram>
</mxfile>